<svg width="101" height="101" viewBox="0 0 101 101" fill="none" xmlns="http://www.w3.org/2000/svg">
<path d="M71.9427 0.422852H29.0856C13.306 0.422852 0.51416 13.2147 0.51416 28.9943V71.8514C0.51416 87.631 13.306 100.423 29.0856 100.423H71.9427C87.7223 100.423 100.514 87.631 100.514 71.8514V28.9943C100.514 13.2147 87.7223 0.422852 71.9427 0.422852Z" fill="#7D3DFF"/>
<path d="M21.9424 27.2085V34.3514H71.9424V43.2084C68.6567 43.9584 66.1567 46.8871 66.1567 50.4228C66.1567 53.9585 68.621 56.8869 71.9424 57.6369V66.4942H29.0852V43.637H21.9424V73.6371H79.0852V55.1371L73.2995 51.9227V50.4228V48.9226L79.0852 45.7085V27.2085H21.9424Z" fill="white"/>
</svg>
